<svg width="16" height="16" viewBox="0 0 16 16" fill="none" xmlns="http://www.w3.org/2000/svg">
  <path d="M15.5453 6.55837H14.9111H8.16634V9.44171H12.4565C11.8509 11.2362 10.1789 12.3251 8.16634 12.3251C5.67602 12.3251 3.66346 10.3125 3.66346 7.82221C3.66346 5.33189 5.67602 3.31934 8.16634 3.31934C9.33195 3.31934 10.3922 3.78225 11.1932 4.52232L13.2631 2.45245C11.9163 1.16657 10.1355 0.435547 8.16634 0.435547C4.08312 0.435547 0.779785 3.73888 0.779785 7.82221C0.779785 11.9054 4.08312 15.2087 8.16634 15.2087C11.9163 15.2087 15.0248 12.4334 15.0248 7.82221C15.0248 7.39741 15.0248 6.97272 14.9687 6.55837H15.5453Z" fill="#FFC107"/>
  <path d="M1.61523 4.14027L3.98935 5.87411C4.68224 4.35791 6.29514 3.31934 8.16632 3.31934C9.33193 3.31934 10.3922 3.78225 11.1932 4.52232L13.2631 2.45245C11.9163 1.16657 10.1355 0.435547 8.16632 0.435547C5.34735 0.435547 2.91913 1.92033 1.61523 4.14027Z" fill="#FF3D00"/>
  <path d="M8.16634 15.2089C10.0791 15.2089 11.8175 14.5138 13.1503 13.2841L10.8905 11.3839C10.1274 11.9592 9.19131 12.3252 8.16634 12.3252C6.16561 12.3252 4.49948 11.2504 3.88374 9.47266L1.51953 11.3037C2.80541 13.5798 5.25935 15.2089 8.16634 15.2089Z" fill="#4CAF50"/>
  <path d="M15.5453 6.55837H14.9111H8.16634V9.44171H12.4565C12.1673 10.2931 11.6197 11.0237 10.8904 11.5277L10.8905 11.5276L13.1503 13.4278C12.9819 13.5821 15.0248 12.0417 15.0248 7.82221C15.0248 7.39741 15.0248 6.97272 14.9687 6.55837H15.5453Z" fill="#1976D2"/>
</svg>